# xmcd
# 
# Track frame offsets:
#     150
#     13513
#     30114
#     53224
# 
# Disc length: 835
# 
# Revision: 0
# Processed by: cddbd v1.5.2PL0 Copyright (c) Steve Scherf et al.
# Submitted via: fre:ac v1.0.17
# 
DISCID=20034104
DTITLE=Under Electric Light - Blue ep
DYEAR=0
DGENRE=
TTITLE0=The city
TTITLE1=Sitting here
TTITLE2=Night out
TTITLE3=1:59
EXTD=
EXTT0=
EXTT1=
EXTT2=
EXTT3=
PLAYORDER=
